<?xml version="1.0" standalone="no"?>
<!DOCTYPE svg PUBLIC "-//W3C//DTD SVG 20010904//EN"
 "http://www.w3.org/TR/2001/REC-SVG-20010904/DTD/svg10.dtd">
<svg version="1.0" xmlns="http://www.w3.org/2000/svg"
 width="225.000000pt" height="225.000000pt" viewBox="0 0 225.000000 225.000000"
 preserveAspectRatio="xMidYMid meet">
<metadata>
Created by potrace 1.14, written by Peter Selinger 2001-2017
</metadata>
<g transform="translate(0.000000,225.000000) scale(0.100000,-0.100000)"
fill="#000000" stroke="none">
<path d="M1148 2226 c-1 -2 -50 -6 -108 -9 -255 -15 -499 -127 -690 -317 -140
-140 -235 -305 -288 -498 -23 -88 -26 -114 -26 -277 0 -164 3 -189 27 -280 80
-296 281 -548 551 -690 243 -129 502 -158 799 -91 152 35 352 151 482 281 180
180 291 405 321 649 48 406 -140 813 -482 1045 -135 91 -336 164 -488 176 -39
4 -76 8 -83 10 -6 2 -13 2 -15 1z m154 -196 c296 -54 569 -280 678 -563 137
-352 57 -733 -210 -997 -346 -341 -888 -356 -1257 -33 -132 115 -262 333 -288
485 -37 207 -23 375 45 544 104 262 325 462 598 544 132 39 289 46 434 20z"/>
<path d="M1047 1974 c-1 -1 -23 -5 -49 -8 -26 -4 -78 -16 -115 -27 -413 -128
-663 -524 -596 -946 44 -282 236 -532 496 -647 92 -40 222 -68 322 -69 122 -1
183 8 289 44 355 118 594 462 579 834 -15 399 -304 734 -693 805 -55 10 -226
20 -233 14z m140 -206 c59 -26 95 -80 95 -140 -1 -75 -34 -127 -98 -154 -112
-47 -227 43 -216 170 8 95 129 164 219 124z m-458 -304 c271 -64 468 -68 721
-15 85 18 165 35 178 37 28 6 72 -36 72 -68 0 -60 -51 -80 -315 -127 l-100
-17 1 -70 c3 -237 25 -392 80 -541 41 -114 41 -127 9 -158 -31 -32 -78 -33
-109 -2 -29 29 -82 175 -104 288 -15 76 -20 88 -36 85 -16 -2 -23 -21 -42
-102 -28 -126 -79 -259 -107 -279 -32 -22 -74 -19 -102 10 -32 31 -32 44 9
156 31 85 47 150 60 234 16 104 28 372 18 379 -4 2 -29 7 -57 10 -64 9 -231
43 -287 59 -53 16 -77 52 -63 94 6 15 21 33 34 39 25 13 36 12 140 -12z"/>
</g>
</svg>
